<svg width="3374" height="2008" xmlns="http://www.w3.org/2000/svg" xmlns:xlink="http://www.w3.org/1999/xlink" xml:space="preserve" overflow="hidden"><defs><clipPath id="clip0"><rect x="297" y="233" width="3374" height="2008"/></clipPath><clipPath id="clip1"><rect x="297" y="233" width="3374" height="2008"/></clipPath><clipPath id="clip2"><rect x="1760" y="689" width="1908" height="1495"/></clipPath><clipPath id="clip3"><rect x="1760" y="689" width="1908" height="1495"/></clipPath><clipPath id="clip4"><rect x="302" y="237" width="2029" height="2001"/></clipPath><clipPath id="clip5"><rect x="302" y="237" width="2029" height="2001"/></clipPath><clipPath id="clip6"><rect x="1309" y="927" width="502" height="1246"/></clipPath><clipPath id="clip7"><rect x="1309" y="927" width="502" height="1246"/></clipPath></defs><g clip-path="url(#clip0)" transform="translate(-297 -233)"><g clip-path="url(#clip1)"><rect x="1386" y="350" width="322" height="1785" fill="#FFFFFF" fill-opacity="1"/><rect x="899" y="996" width="322" height="1139" fill="#FFFFFF" fill-opacity="1"/><rect x="1875" y="996" width="322" height="1139" fill="#FFFFFF" fill-opacity="1"/><rect x="411" y="1507" width="322" height="628" fill="#FFFFFF" fill-opacity="1"/><g clip-path="url(#clip2)"><g clip-path="url(#clip3)"><g><path d="M496.689 347.682 347.682 347.682 347.682 2036.42 2036.42 2036.42 2036.42 1887.42 496.689 1887.42Z" fill="#000000" fill-rule="nonzero" fill-opacity="1" transform="matrix(1.22405 0 0 1 1076.83 412.228)"/><path d="M645.695 869.205 918.874 869.205 918.874 1738.41 645.695 1738.41Z" fill="#000000" fill-rule="nonzero" fill-opacity="1" transform="matrix(1.22405 0 0 1 1076.83 412.228)"/><path d="M1018.21 347.682 1291.39 347.682 1291.39 1738.41 1018.21 1738.41Z" fill="#000000" fill-rule="nonzero" fill-opacity="1" transform="matrix(1.22405 0 0 1 1076.83 412.228)"/><path d="M1390.73 869.205 1663.91 869.205 1663.91 1738.41 1390.73 1738.41Z" fill="#000000" fill-rule="nonzero" fill-opacity="1" transform="matrix(1.22405 0 0 1 1076.83 412.228)"/><path d="M1763.24 1291.39 2036.42 1291.39 2036.42 1738.41 1763.24 1738.41Z" fill="#000000" fill-rule="nonzero" fill-opacity="1" transform="matrix(1.22405 0 0 1 1076.83 412.228)"/></g></g></g><g clip-path="url(#clip4)"><g clip-path="url(#clip5)"><g><path d="M2431.2 425.449 2491.98 425.449 2491.98 2491.92 426.422 2491.92 426.422 2431.14 2431.2 2431.14 2431.2 425.449Z" fill="#000000" fill-rule="nonzero" fill-opacity="1" transform="matrix(1 0 0 1.00014 -34.4015 -97.6615)"/><path d="M2248.8 2249.29 2248.8 1063.81 1884.13 1063.81 1884.13 2249.29ZM2188.03 2188.51 1944.91 2188.51 1944.91 1124.58 2188.03 1124.58Z" fill="#000000" fill-rule="nonzero" fill-opacity="1" transform="matrix(1 0 0 1.00014 -34.4015 -97.6615)"/><path d="M1762.58 2249.29 1762.58 425.449 1397.91 425.449 1397.91 2249.29ZM1701.8 2188.51 1458.68 2188.51 1458.68 486.228 1701.8 486.228Z" fill="#000000" fill-rule="nonzero" fill-opacity="1" transform="matrix(1 0 0 1.00014 -34.4015 -97.6615)"/><path d="M1276.35 2249.29 1276.35 1063.81 911.677 1063.81 911.677 2249.29ZM1215.57 2188.51 972.456 2188.51 972.456 1124.58 1215.57 1124.58Z" fill="#000000" fill-rule="nonzero" fill-opacity="1" transform="matrix(1 0 0 1.00014 -34.4015 -97.6615)"/><path d="M790.12 1580.57 425.449 1580.57 425.449 2249.29 790.12 2249.29ZM729.342 2188.51 486.228 2188.51 486.228 1641.35 729.342 1641.35Z" fill="#000000" fill-rule="nonzero" fill-opacity="1" transform="matrix(1 0 0 1.00014 -34.4015 -97.6615)"/></g></g></g><g clip-path="url(#clip6)"><g clip-path="url(#clip7)"><g><path d="M414.24 289.968 289.968 289.968 289.968 1698.38 1698.38 1698.38 1698.38 1574.11 414.24 1574.11Z" fill="#000000" fill-rule="nonzero" fill-opacity="1" transform="matrix(1.46691 0 0 1 -777.81 695.337)"/><path d="M538.512 724.919 766.343 724.919 766.343 1449.84 538.512 1449.84Z" fill="#000000" fill-rule="nonzero" fill-opacity="1" transform="matrix(1.46691 0 0 1 -777.81 695.337)"/><path d="M849.191 289.968 1077.02 289.968 1077.02 1449.84 849.191 1449.84Z" fill="#000000" fill-rule="nonzero" fill-opacity="1" transform="matrix(1.46691 0 0 1 -777.81 695.337)"/><path d="M1159.87 724.919 1387.7 724.919 1387.7 1449.84 1159.87 1449.84Z" fill="#000000" fill-rule="nonzero" fill-opacity="1" transform="matrix(1.46691 0 0 1 -777.81 695.337)"/><path d="M1470.55 1077.02 1698.38 1077.02 1698.38 1449.84 1470.55 1449.84Z" fill="#000000" fill-rule="nonzero" fill-opacity="1" transform="matrix(1.46691 0 0 1 -777.81 695.337)"/></g></g></g></g></g></svg>