<svg width="3941" height="2008" xmlns="http://www.w3.org/2000/svg" xmlns:xlink="http://www.w3.org/1999/xlink" xml:space="preserve" overflow="hidden"><defs><clipPath id="clip0"><rect x="229" y="233" width="3941" height="2008"/></clipPath><clipPath id="clip1"><rect x="229" y="233" width="3941" height="2008"/></clipPath><clipPath id="clip2"><rect x="2260" y="363" width="1908" height="1829"/></clipPath><clipPath id="clip3"><rect x="2260" y="363" width="1908" height="1829"/></clipPath><clipPath id="clip4"><rect x="232" y="237" width="2029" height="2001"/></clipPath><clipPath id="clip5"><rect x="232" y="237" width="2029" height="2001"/></clipPath></defs><g clip-path="url(#clip0)" transform="translate(-229 -233)"><g clip-path="url(#clip1)"><g clip-path="url(#clip2)"><g clip-path="url(#clip3)"><g><path d="M607.729 425.41 425.41 425.41 425.41 2491.69 2491.69 2491.69 2491.69 2309.37 607.729 2309.37Z" fill="#000000" fill-rule="nonzero" fill-opacity="1" transform="matrix(1.0004 0 0 1 1577.83 23.1288)"/><path d="M790.048 1063.53 1124.3 1063.53 1124.3 2127.05 790.048 2127.05Z" fill="#000000" fill-rule="nonzero" fill-opacity="1" transform="matrix(1.0004 0 0 1 1577.83 23.1288)"/><path d="M1245.84 425.41 1580.1 425.41 1580.1 2127.05 1245.84 2127.05Z" fill="#000000" fill-rule="nonzero" fill-opacity="1" transform="matrix(1.0004 0 0 1 1577.83 23.1288)"/><path d="M1701.64 1063.53 2035.89 1063.53 2035.89 2127.05 1701.64 2127.05Z" fill="#000000" fill-rule="nonzero" fill-opacity="1" transform="matrix(1.0004 0 0 1 1577.83 23.1288)"/><path d="M2157.44 1580.1 2491.69 1580.1 2491.69 2127.05 2157.44 2127.05Z" fill="#000000" fill-rule="nonzero" fill-opacity="1" transform="matrix(1.0004 0 0 1 1577.83 23.1288)"/></g></g></g><g clip-path="url(#clip4)"><g clip-path="url(#clip5)"><g><path d="M2431.2 425.449 2491.98 425.449 2491.98 2491.92 426.422 2491.92 426.422 2431.14 2431.2 2431.14 2431.2 425.449Z" fill="#000000" fill-rule="nonzero" fill-opacity="1" transform="matrix(1 0 0 1.00014 -104.402 -97.6615)"/><path d="M2248.8 2249.29 2248.8 1063.81 1884.13 1063.81 1884.13 2249.29ZM2188.03 2188.51 1944.91 2188.51 1944.91 1124.58 2188.03 1124.58Z" fill="#000000" fill-rule="nonzero" fill-opacity="1" transform="matrix(1 0 0 1.00014 -104.402 -97.6615)"/><path d="M1762.58 2249.29 1762.58 425.449 1397.91 425.449 1397.91 2249.29ZM1701.8 2188.51 1458.68 2188.51 1458.68 486.228 1701.8 486.228Z" fill="#000000" fill-rule="nonzero" fill-opacity="1" transform="matrix(1 0 0 1.00014 -104.402 -97.6615)"/><path d="M1276.35 2249.29 1276.35 1063.81 911.677 1063.81 911.677 2249.29ZM1215.57 2188.51 972.456 2188.51 972.456 1124.58 1215.57 1124.58Z" fill="#000000" fill-rule="nonzero" fill-opacity="1" transform="matrix(1 0 0 1.00014 -104.402 -97.6615)"/><path d="M790.12 1580.57 425.449 1580.57 425.449 2249.29 790.12 2249.29ZM729.342 2188.51 486.228 2188.51 486.228 1641.35 729.342 1641.35Z" fill="#000000" fill-rule="nonzero" fill-opacity="1" transform="matrix(1 0 0 1.00014 -104.402 -97.6615)"/></g></g></g></g></g></svg>