<svg width="727" height="726" xmlns="http://www.w3.org/2000/svg" xmlns:xlink="http://www.w3.org/1999/xlink" xml:space="preserve" overflow="hidden"><g transform="translate(-565 -24)"><g><g><g><g><path d="M1147.51 493.184 1147.51 221.354 709.49 221.354 709.49 493.305ZM724.594 236.458 1132.41 236.458 1132.41 478.072 724.594 478.201Z" fill="#000000" fill-rule="nonzero" fill-opacity="1"/><path d="M686.833 213.802C686.833 205.46 693.595 198.698 701.938 198.698L1155.06 198.698C1163.4 198.698 1170.17 205.46 1170.17 213.802L1170.17 523.536 1185.27 523.536 1185.27 213.802C1185.27 197.119 1171.75 183.594 1155.06 183.594L701.938 183.594C685.254 183.594 671.729 197.119 671.729 213.802L671.729 523.536 686.833 523.536Z" fill="#000000" fill-rule="nonzero" fill-opacity="1"/><path d="M966.26 546.048 966.26 561.153 890.74 561.153 890.74 546.048 581.104 546.048 581.104 561.153C581.129 581.997 598.02 598.888 618.865 598.913L1238.14 598.913C1258.98 598.888 1275.87 581.997 1275.9 561.153L1275.9 546.048ZM1238.14 583.809 618.865 583.809C606.352 583.809 596.208 573.666 596.208 561.153L875.635 561.153C875.36 569.218 881.675 575.981 889.74 576.257 890.073 576.268 890.407 576.268 890.74 576.257L966.26 576.257C974.326 576.532 981.089 570.217 981.365 562.152 981.376 561.819 981.376 561.486 981.365 561.153L1260.79 561.153C1260.79 573.666 1250.65 583.809 1238.14 583.809Z" fill="#000000" fill-rule="nonzero" fill-opacity="1"/></g></g></g></g></g></svg>