<svg width="2017" height="2016" xmlns="http://www.w3.org/2000/svg" xmlns:xlink="http://www.w3.org/1999/xlink" xml:space="preserve" overflow="hidden"><defs><linearGradient x1="1839.26" y1="566.824" x2="2557.74" y2="1725.18" gradientUnits="userSpaceOnUse" spreadMethod="reflect" id="fill0"><stop offset="0" stop-color="#F0F8FD" stop-opacity="1"/><stop offset="0.74" stop-color="#74C4E9" stop-opacity="1"/><stop offset="0.83" stop-color="#74C4E9" stop-opacity="1"/><stop offset="1" stop-color="#A2D8F0" stop-opacity="1"/></linearGradient></defs><g transform="translate(-1191 -229)"><g><rect x="1277" y="1680" width="1846" height="115" fill="#7F7F7F" fill-opacity="1"/><path d="M1240 1680 1530.19 1593 2870.81 1593 3161 1680Z" fill="#7F7F7F" fill-rule="evenodd" fill-opacity="1"/><rect x="1552" y="745" width="1293" height="802" stroke="#7F7F7F" stroke-width="91.6667" stroke-linecap="butt" stroke-linejoin="miter" stroke-miterlimit="8" stroke-opacity="1" fill="url(#fill0)"/><g><g><g><path d="M1612.19 1298 1612.19 544.375 397.813 544.375 397.813 1298.33ZM439.688 586.25 1570.31 586.25 1570.31 1256.1 439.688 1256.46Z" fill="#000000" fill-rule="nonzero" fill-opacity="1" transform="matrix(1 0 0 1.0005 1195 232)"/><path d="M335 523.438C335 500.31 353.747 481.563 376.875 481.563L1633.13 481.563C1656.25 481.563 1675 500.31 1675 523.438L1675 1382.15 1716.88 1382.15 1716.88 523.438C1716.88 477.185 1679.38 439.688 1633.13 439.688L376.875 439.688C330.622 439.688 293.125 477.185 293.125 523.438L293.125 1382.15 335 1382.15Z" fill="#000000" fill-rule="nonzero" fill-opacity="1" transform="matrix(1 0 0 1.0005 1195 232)"/><path d="M1109.69 1444.56 1109.69 1486.44 900.313 1486.44 900.313 1444.56 41.875 1444.56 41.875 1486.44C41.9443 1544.23 88.774 1591.06 146.563 1591.12L1863.44 1591.12C1921.23 1591.06 1968.06 1544.23 1968.13 1486.44L1968.13 1444.56ZM1863.44 1549.25 146.563 1549.25C111.872 1549.25 83.75 1521.13 83.75 1486.44L858.438 1486.44C857.673 1508.8 875.181 1527.55 897.543 1528.31 898.466 1528.34 899.389 1528.34 900.313 1528.31L1109.69 1528.31C1132.05 1529.08 1150.8 1511.57 1151.56 1489.21 1151.59 1488.28 1151.59 1487.36 1151.56 1486.44L1926.25 1486.44C1926.25 1521.13 1898.13 1549.25 1863.44 1549.25Z" fill="#000000" fill-rule="nonzero" fill-opacity="1" transform="matrix(1 0 0 1.0005 1195 232)"/></g></g></g></g></g></svg>